<?xml version="1.0" standalone="no"?>
<!DOCTYPE svg PUBLIC "-//W3C//DTD SVG 20010904//EN"
 "http://www.w3.org/TR/2001/REC-SVG-20010904/DTD/svg10.dtd">
<svg version="1.0" xmlns="http://www.w3.org/2000/svg"
 width="700.000000pt" height="700.000000pt" viewBox="0 0 700.000000 700.000000"
 preserveAspectRatio="xMidYMid meet">
<metadata>
Created by potrace 1.11, written by Peter Selinger 2001-2013
</metadata>
<g transform="translate(0.000000,700.000000) scale(0.100000,-0.100000)"
fill="#000000" stroke="none">
<path d="M2556 6984 c-22 -8 -53 -25 -70 -38 -17 -13 -373 -365 -790 -782
-840 -840 -810 -806 -808 -930 1 -120 -14 -102 644 -760 330 -331 601 -605
602 -609 0 -5 -6 -9 -14 -10 -8 -2 -36 -10 -63 -19 -170 -58 -288 -227 -282
-406 4 -136 62 -246 173 -330 28 -21 48 -41 44 -45 -4 -4 4 -4 18 -1 16 5 20
4 12 -2 -10 -7 161 -182 643 -663 361 -360 660 -655 665 -657 6 -2 10 -85 10
-203 l0 -198 -121 -3 -121 -3 1 -607 c0 -335 0 -633 1 -663 l0 -55 1448 0
1447 0 0 663 0 662 -103 2 c-56 1 -110 2 -120 3 -17 0 -18 17 -17 268 l0 268
80 80 c90 88 117 122 164 207 119 214 147 481 76 709 -23 76 -89 205 -135 266
-22 29 -40 57 -40 63 0 5 33 42 74 82 114 113 147 179 139 280 -6 77 -38 130
-144 240 -55 56 -99 104 -99 107 0 3 15 12 33 19 49 22 140 119 169 182 130
277 -59 590 -364 603 -120 5 -224 -37 -312 -127 -34 -35 -68 -77 -75 -94 -13
-31 -13 -31 -32 -12 -25 25 -24 33 9 50 80 41 169 155 197 253 19 66 18 183
-2 233 -7 18 -13 34 -12 35 1 2 -8 22 -19 45 -27 53 -104 132 -162 166 -121
70 -286 71 -420 2 -46 -24 -137 -118 -156 -162 l-17 -40 -23 26 -22 26 42 26
c60 38 127 108 154 162 13 26 23 50 24 54 0 4 5 17 10 27 15 27 19 154 7 207
-28 123 -120 237 -236 292 -64 30 -75 32 -178 32 -104 0 -114 -2 -176 -33 -75
-36 -145 -100 -185 -168 -22 -37 -29 -43 -36 -30 -5 8 -16 20 -26 25 -15 8
-12 12 18 25 44 18 130 98 162 151 143 233 18 555 -242 623 -105 27 -222 17
-307 -26 -55 -29 -139 -107 -169 -158 -14 -24 -27 -44 -29 -44 -2 0 -156 153
-343 340 -266 266 -351 345 -389 362 -58 26 -152 31 -207 12z m-377 -3970 c10
-9 -45 -3 -59 6 -11 7 -5 8 20 4 19 -4 37 -8 39 -10z"/>
</g>
</svg>
